<svg width="32" height="32" viewBox="0 0 32 32" fill="none" xmlns="http://www.w3.org/2000/svg">
<mask id="path-2-inside-1" fill="white">
<path fill-rule="evenodd" clip-rule="evenodd" d="M7 5C5.89543 5 5 5.89543 5 7V20.25C5 21.3546 5.89543 22.25 7 22.25H7.61905L7.29167 28L16.9167 22.25H25C26.1046 22.25 27 21.3546 27 20.25V7C27 5.89543 26.1046 5 25 5H7Z"/>
</mask>
<path d="M7.61905 22.25L9.11663 22.3353L9.20689 20.75H7.61905V22.25ZM7.29167 28L5.79409 27.9147L5.63335 30.738L8.06095 29.2877L7.29167 28ZM16.9167 22.25V20.75H16.5027L16.1474 20.9623L16.9167 22.25ZM6.5 7C6.5 6.72386 6.72386 6.5 7 6.5V3.5C5.067 3.5 3.5 5.067 3.5 7H6.5ZM6.5 20.25V7H3.5V20.25H6.5ZM7 20.75C6.72386 20.75 6.5 20.5261 6.5 20.25H3.5C3.5 22.183 5.067 23.75 7 23.75V20.75ZM7.61905 20.75H7V23.75H7.61905V20.75ZM8.78924 28.0853L9.11663 22.3353L6.12148 22.1647L5.79409 27.9147L8.78924 28.0853ZM16.1474 20.9623L6.52238 26.7123L8.06095 29.2877L17.6859 23.5377L16.1474 20.9623ZM25 20.75H16.9167V23.75H25V20.75ZM25.5 20.25C25.5 20.5261 25.2761 20.75 25 20.75V23.75C26.933 23.75 28.5 22.183 28.5 20.25H25.5ZM25.5 7V20.25H28.5V7H25.5ZM25 6.5C25.2761 6.5 25.5 6.72386 25.5 7H28.5C28.5 5.067 26.933 3.5 25 3.5V6.5ZM7 6.5H25V3.5H7V6.5Z" fill="#6E6E6E" mask="url(#path-2-inside-1)"/>
<line x1="9.5" y1="9.5" x2="22.5" y2="9.5" stroke="#6E6E6E" stroke-linecap="round"/>
<line x1="9.5" y1="13.5" x2="19.5" y2="13.5" stroke="#6E6E6E" stroke-linecap="round"/>
<line x1="9.5" y1="17.5" x2="21.5" y2="17.5" stroke="#6E6E6E" stroke-linecap="round"/>
</svg>
