<svg width="32" height="32" viewBox="0 0 32 32" fill="none" xmlns="http://www.w3.org/2000/svg">
<path fill-rule="evenodd" clip-rule="evenodd" d="M10 8H13V10H10V15H8V10C8 8.89543 8.89543 8 10 8ZM8 21V24C8 25.1046 8.89543 26 10 26H22C23.1046 26 24 25.1046 24 24V10C24 8.89543 23.1046 8 22 8H19V10H22V24H10V21H8Z" fill="#6E6E6E"/>
<mask id="path-3-inside-1" fill="white">
<rect x="12" y="6" width="8" height="6" rx="1"/>
</mask>
<rect x="12" y="6" width="8" height="6" rx="1" stroke="#6E6E6E" stroke-width="4" mask="url(#path-3-inside-1)"/>
<rect x="4" y="17" width="12" height="2" rx="1" fill="#6E6E6E"/>
<rect x="12.4142" y="14" width="5.77306" height="2" rx="1" transform="rotate(45 12.4142 14)" fill="#6E6E6E"/>
<rect x="11" y="21.0822" width="5.77306" height="2" rx="1" transform="rotate(-45 11 21.0822)" fill="#6E6E6E"/>
</svg>
