<svg width="32" height="32" viewBox="0 0 32 32" fill="none" xmlns="http://www.w3.org/2000/svg">
<path fill-rule="evenodd" clip-rule="evenodd" d="M23.6275 8.86699C23.4252 8.86089 23.0877 8.816 22.5728 8.65034C22.1039 8.49947 21.5464 8.26664 20.893 7.93157C21.4368 9.14667 22.1136 10.4992 22.8188 11.9082L23.0295 12.3294C23.2837 12.8377 23.5403 13.3526 23.7923 13.8672C24.4245 13.8566 25.0484 13.7519 25.649 13.524C25.9503 13.4097 26.2277 13.2715 26.4826 13.1134C25.443 11.4827 24.4912 10.0635 23.6275 8.86699ZM28.4775 10.6682C26.9984 8.3849 25.6498 6.46657 24.4433 5.00018C24.8496 4.45877 25.4731 4.08317 26.1999 4.01206C27.5741 3.87761 28.797 4.88258 28.9315 6.25673C29.0648 7.61918 29.029 9.04526 28.6065 10.3163C28.5672 10.4343 28.5242 10.5518 28.4775 10.6682ZM20.0294 13.0381C19.084 12.6498 18.0718 12.1261 16.9906 11.4717C15.4455 9.16916 13.8548 6.87528 12.4177 5.20831C12.3496 5.12925 12.2811 5.05083 12.2124 4.97321C12.7445 4.78741 13.2906 4.72009 13.8095 4.73167C14.8191 4.75418 15.8556 5.0737 16.8774 5.57188C17.0185 6.25177 17.2621 6.98328 17.5481 7.71698C18.1717 9.31628 19.1096 11.2005 20.0294 13.0381ZM9.96522 6.96079C10.0243 7.02752 10.0844 7.0963 10.1455 7.16713C11.6363 8.89648 13.3658 11.4401 15.1273 14.0823C15.3148 14.3636 15.5028 14.6462 15.6908 14.9288L15.6923 14.9309L15.6923 14.931C16.6628 16.3897 17.6337 17.8491 18.5501 19.1468C18.5869 19.4124 18.6066 19.6763 18.608 19.938C18.6161 21.5193 17.9296 22.954 16.5956 23.7988C16.4099 23.2018 16.1548 22.5737 15.8701 21.9444C15.1085 20.2608 13.9737 18.2309 12.8357 16.1951L12.8356 16.1951C12.5934 15.7617 12.3509 15.328 12.1119 14.8973C11.1157 13.1024 10.1747 11.3532 9.4659 9.78721C9.41815 9.03229 9.48146 8.28719 9.70786 7.58956C9.77684 7.37702 9.86217 7.16619 9.96522 6.96079ZM10.0213 17.3091C9.32142 16.831 8.60614 16.4489 7.8935 16.2329C7.29281 16.0508 6.51135 15.9306 5.68108 16.1453C5.53572 16.1829 5.39526 16.2291 5.26 16.2834C7.85139 19.9927 9.61211 22.413 10.9433 23.907C11.3205 24.0653 11.6996 24.1954 12.0776 24.2958C12.5848 24.4305 13.1281 24.5203 13.6822 24.5382C13.5557 24.16 13.3752 23.708 13.1368 23.1809C12.4331 21.6253 11.3792 19.7392 10.2426 17.7052L10.2426 17.7052L10.2421 17.7044C10.1688 17.5732 10.0952 17.4414 10.0213 17.3091ZM9.22771 26.4696C7.74683 24.9294 5.86866 22.3825 3.21349 18.5929C2.89055 19.6579 2.98987 20.8077 3.1469 21.7196C3.37602 23.0502 3.87419 24.6378 4.60728 26.4415C5.12715 27.7206 6.5855 28.3361 7.8646 27.8162C8.50513 27.5559 8.97924 27.0602 9.22771 26.4696ZM8.00967 19.9963C8.00978 19.9964 8.00928 20 8.00785 20.0068C8.00884 19.9996 8.00956 19.9962 8.00967 19.9963Z" fill="#6E6E6E"/>
</svg>
